<svg xmlns="http://www.w3.org/2000/svg" width="16.428" height="18.775" viewBox="0 0 16.428 18.775"><path d="M14.668,2.347h-1.76V.44a.44.44,0,0,0-.44-.44h-.293a.44.44,0,0,0-.44.44V2.347H4.694V.44A.44.44,0,0,0,4.254,0H3.96a.44.44,0,0,0-.44.44V2.347H1.76A1.76,1.76,0,0,0,0,4.107V17.015a1.76,1.76,0,0,0,1.76,1.76H14.668a1.76,1.76,0,0,0,1.76-1.76V4.107A1.76,1.76,0,0,0,14.668,2.347ZM1.76,3.52H14.668a.587.587,0,0,1,.587.587v1.76H1.173V4.107A.587.587,0,0,1,1.76,3.52ZM14.668,17.6H1.76a.587.587,0,0,1-.587-.587V7.04H15.254v9.974A.587.587,0,0,1,14.668,17.6Z"/></svg>