<svg xmlns="http://www.w3.org/2000/svg" width="35" height="26.25" viewBox="0 0 35 26.25"><path d="M31.719,64H3.281A3.282,3.282,0,0,0,0,67.281V86.969A3.282,3.282,0,0,0,3.281,90.25H31.719A3.282,3.282,0,0,0,35,86.969V67.281A3.282,3.282,0,0,0,31.719,64ZM3.281,66.188H31.719a1.1,1.1,0,0,1,1.094,1.094v2.83c-1.5,1.265-3.637,3.008-10.295,8.292-1.155.916-3.432,3.124-5.018,3.1-1.586.027-3.869-2.181-5.018-3.1-6.658-5.284-8.8-7.027-10.295-8.292v-2.83A1.1,1.1,0,0,1,3.281,66.188ZM31.719,88.063H3.281a1.1,1.1,0,0,1-1.094-1.094V72.955c1.559,1.278,4.02,3.254,8.935,7.157C12.523,81.233,15,83.7,17.5,83.688c2.488.021,4.942-2.427,6.378-3.575,4.915-3.9,7.376-5.879,8.935-7.157V86.969A1.1,1.1,0,0,1,31.719,88.063Z" transform="translate(0 -64)" fill="#fff"/></svg>