<svg xmlns="http://www.w3.org/2000/svg" width="23" height="22.995" viewBox="0 0 23 22.995"><path d="M11.428,37.427a5.9,5.9,0,1,0,5.9,5.9A5.886,5.886,0,0,0,11.428,37.427Zm0,9.729a3.833,3.833,0,1,1,3.833-3.833,3.84,3.84,0,0,1-3.833,3.833Zm7.512-9.97a1.375,1.375,0,1,1-1.375-1.375A1.372,1.372,0,0,1,18.939,37.186Zm3.9,1.4a6.805,6.805,0,0,0-1.857-4.818,6.85,6.85,0,0,0-4.818-1.857c-1.9-.108-7.589-.108-9.487,0a6.84,6.84,0,0,0-4.818,1.852A6.827,6.827,0,0,0,.006,38.576c-.108,1.9-.108,7.589,0,9.487a6.805,6.805,0,0,0,1.857,4.818,6.859,6.859,0,0,0,4.818,1.857c1.9.108,7.589.108,9.487,0a6.805,6.805,0,0,0,4.818-1.857,6.85,6.85,0,0,0,1.857-4.818C22.952,46.165,22.952,40.48,22.844,38.581ZM20.392,50.1a3.881,3.881,0,0,1-2.186,2.186c-1.514.6-5.105.462-6.778.462s-5.27.133-6.778-.462A3.881,3.881,0,0,1,2.464,50.1C1.863,48.587,2,45,2,43.322s-.133-5.27.462-6.778a3.881,3.881,0,0,1,2.186-2.186c1.514-.6,5.105-.462,6.778-.462s5.27-.133,6.778.462a3.881,3.881,0,0,1,2.186,2.186c.6,1.514.462,5.105.462,6.778S20.992,48.592,20.392,50.1Z" transform="translate(0.075 -31.825)" fill="#fff"/></svg>