<svg xmlns="http://www.w3.org/2000/svg" width="35" height="35" viewBox="0 0 35 35"><path d="M30.625,0H4.375A4.379,4.379,0,0,0,0,4.375V24.063a4.379,4.379,0,0,0,4.375,4.375h6.563V34.18a.818.818,0,0,0,.82.82.785.785,0,0,0,.485-.164l8.538-6.4h9.844A4.379,4.379,0,0,0,35,24.063V4.375A4.379,4.379,0,0,0,30.625,0Zm2.188,24.063a2.194,2.194,0,0,1-2.188,2.188H20.05l-.581.438-6.344,4.758v-5.2H4.375a2.194,2.194,0,0,1-2.187-2.187V4.375A2.194,2.194,0,0,1,4.375,2.188h26.25a2.194,2.194,0,0,1,2.188,2.188Z" fill="#fff"/></svg>