<svg xmlns="http://www.w3.org/2000/svg" width="23" height="23" viewBox="0 0 23 23"><path d="M23,34.464V52.536A2.465,2.465,0,0,1,20.536,55H7.927a13.155,13.155,0,0,0,1.407-3.044c.154-.59.785-3,.785-3a3.371,3.371,0,0,0,2.89,1.448c3.8,0,6.541-3.5,6.541-7.84,0-4.164-3.4-7.28-7.773-7.28-5.442,0-8.327,3.65-8.327,7.629,0,1.848.986,4.148,2.557,4.882.241.113.365.062.421-.169.041-.175.257-1.032.349-1.427a.372.372,0,0,0-.087-.359,4.914,4.914,0,0,1-.94-2.875,5.457,5.457,0,0,1,5.694-5.473,4.978,4.978,0,0,1,5.267,5.129c0,3.409-1.72,5.771-3.963,5.771a1.834,1.834,0,0,1-1.869-2.279,25.476,25.476,0,0,0,1.042-4.2c0-2.721-3.876-2.346-3.876,1.283a4.607,4.607,0,0,0,.375,1.874c-1.612,6.818-1.853,6.905-1.52,9.888L7.013,55H2.464A2.465,2.465,0,0,1,0,52.536V34.464A2.465,2.465,0,0,1,2.464,32H20.536A2.465,2.465,0,0,1,23,34.464Z" transform="translate(0 -32)" fill="#fff"/></svg>