<svg xmlns="http://www.w3.org/2000/svg" width="19.333" height="14.5" viewBox="0 0 19.333 14.5"><path d="M10.875,36.833a.242.242,0,0,1-.242-.242v-.483a.242.242,0,0,1,.242-.242h7.25a.242.242,0,0,1,.242.242v.483a.242.242,0,0,1-.242.242ZM.242,42.633H.967V39.368A1.935,1.935,0,0,1,1.535,38l2.534-2.534A1.925,1.925,0,0,1,5.434,34.9H6.767V33.408A1.454,1.454,0,0,1,8.259,32h7.649A1.454,1.454,0,0,1,17.4,33.408v.526h1.692a.242.242,0,0,1,.242.242v.483a.242.242,0,0,1-.242.242h-7.25a.242.242,0,0,1-.242-.242v-.483a.242.242,0,0,1,.242-.242h4.592v-.526a.488.488,0,0,0-.526-.441H8.259a.488.488,0,0,0-.526.441v9.226h5.329a2.408,2.408,0,0,1,1.921-.967,2.382,2.382,0,0,1,1.45.5V39.733H17.4v4.35a2.417,2.417,0,1,1-4.833,0,2.546,2.546,0,0,1,.048-.483h-5.9a2.322,2.322,0,0,1,.048.483,2.417,2.417,0,1,1-4.833,0,2.546,2.546,0,0,1,.048-.483H.242A.242.242,0,0,1,0,43.358v-.483A.242.242,0,0,1,.242,42.633Zm14.742,2.9a1.45,1.45,0,1,0-1.45-1.45A1.45,1.45,0,0,0,14.983,45.533ZM6.767,35.867H5.434a.965.965,0,0,0-.683.284L2.217,38.685a.808.808,0,0,0-.054.085h4.6ZM4.35,45.533a1.45,1.45,0,1,0-1.45-1.45A1.45,1.45,0,0,0,4.35,45.533Zm-2.417-2.9h.5a2.393,2.393,0,0,1,3.842,0h.5v-2.9H1.933ZM11.6,38.525v-.483a.242.242,0,0,1,.242-.242h7.25a.242.242,0,0,1,.242.242v.483a.242.242,0,0,1-.242.242h-7.25A.242.242,0,0,1,11.6,38.525Z" transform="translate(0 -32)"/></svg>