<svg xmlns="http://www.w3.org/2000/svg" width="35" height="35" viewBox="0 0 35 35"><path d="M25.5,31.427A1.976,1.976,0,1,0,27.476,33.4,1.976,1.976,0,0,0,25.5,31.427Zm.541-1.694H24.912a.847.847,0,0,1-.847-.847V28.86c0-4.964,5.465-4.489,5.465-7.579,0-1.412-1.253-2.837-4.053-2.837A4.664,4.664,0,0,0,21.3,20.468a.845.845,0,0,1-1.147.168l-.927-.646a.846.846,0,0,1-.187-1.212,7.4,7.4,0,0,1,6.438-3.157c3.692,0,6.876,2.1,6.876,5.66,0,4.757-5.465,4.505-5.465,7.579v.027a.847.847,0,0,1-.847.847ZM25.5,10.258A15.242,15.242,0,1,1,10.258,25.5,15.244,15.244,0,0,1,25.5,10.258M25.5,8A17.5,17.5,0,1,0,43,25.5,17.5,17.5,0,0,0,25.5,8Z" transform="translate(-8 -8)" fill="#fff"/></svg>