<svg xmlns="http://www.w3.org/2000/svg" viewBox="0 0 78.85 120.22"><defs><style>.cls-1{fill:#010101;}</style></defs><title>Asset 2</title><g id="Layer_2" data-name="Layer 2"><g id="Layer_1-2" data-name="Layer 1"><path class="cls-1" d="M78.85,58.21a9.4,9.4,0,0,0-15-7.51h0a9.39,9.39,0,0,0-15.61-7,9.39,9.39,0,0,0-14.43-4.26V35A18.76,18.76,0,1,0,15,35V55.11a17,17,0,0,0-7.6-5.35,5.5,5.5,0,0,0-5,.74A5.63,5.63,0,0,0,0,55.1V88.25a39.13,39.13,0,0,0,15.77,31.54,1.88,1.88,0,0,0,2.26-3h0A35.4,35.4,0,0,1,3.76,88.25V55.1a1.87,1.87,0,0,1,.8-1.58,1.79,1.79,0,0,1,1.63-.25A13.15,13.15,0,0,1,15,65.72v15a1.88,1.88,0,1,0,3.75,0V24.42a5.64,5.64,0,0,1,11.27,0V67.6a1.88,1.88,0,1,0,3.75,0V47a5.64,5.64,0,0,1,11.27,0V67.6a1.88,1.88,0,1,0,3.75,0V50.7a5.64,5.64,0,0,1,11.27,0V71.35a1.88,1.88,0,1,0,3.75,0V58.21a5.64,5.64,0,0,1,11.27,0v30c0,11-.4,22.26-5.11,29a1.88,1.88,0,0,0,3,2.26l.07-.1c5.35-7.6,5.79-19.54,5.79-31.12ZM24.41,15A9.38,9.38,0,0,0,15,24.42V30.5a15,15,0,1,1,21.11-2.34,14.39,14.39,0,0,1-2.34,2.34V24.42A9.38,9.38,0,0,0,24.41,15Z"/></g></g></svg>