<svg xmlns="http://www.w3.org/2000/svg" width="23" height="23" viewBox="0 0 23 23"><path d="M20.536,32H2.464A2.465,2.465,0,0,0,0,34.464V52.536A2.465,2.465,0,0,0,2.464,55H20.536A2.465,2.465,0,0,0,23,52.536V34.464A2.465,2.465,0,0,0,20.536,32Zm-2.51,8.153c.01.144.01.293.01.436a9.515,9.515,0,0,1-9.58,9.58,9.536,9.536,0,0,1-5.17-1.509A7.093,7.093,0,0,0,4.1,48.7a6.751,6.751,0,0,0,4.179-1.437,3.372,3.372,0,0,1-3.147-2.336,3.629,3.629,0,0,0,1.52-.062,3.367,3.367,0,0,1-2.7-3.306v-.041a3.365,3.365,0,0,0,1.52.426,3.36,3.36,0,0,1-1.5-2.8,3.325,3.325,0,0,1,.457-1.7,9.561,9.561,0,0,0,6.941,3.522,3.374,3.374,0,0,1,5.745-3.075,6.6,6.6,0,0,0,2.136-.811,3.358,3.358,0,0,1-1.479,1.853,6.7,6.7,0,0,0,1.941-.524A7.087,7.087,0,0,1,18.025,40.153Z" transform="translate(0 -32)" fill="#fff"/></svg>