<svg xmlns="http://www.w3.org/2000/svg" width="165" height="23.036" viewBox="0 0 165 23.036"><g transform="translate(-20631 103)"><g transform="translate(20631 -103)"><g transform="translate(0 0)"><path d="M259.941,16.853a8.387,8.387,0,1,1-8.387,8.387,8.38,8.38,0,0,1,8.387-8.387m0-3.053a11.441,11.441,0,1,0,11.441,11.441A11.439,11.439,0,0,0,259.941,13.8Z" transform="translate(-165.595 -13.684)" fill="#848484"/><path d="M177.141,16.853a8.387,8.387,0,1,1-8.387,8.387,8.38,8.38,0,0,1,8.387-8.387m0-3.053a11.441,11.441,0,1,0,11.441,11.441A11.439,11.439,0,0,0,177.141,13.8Z" transform="translate(-114.797 -13.684)" fill="#848484"/><path d="M35.507,36.536h0A1.518,1.518,0,0,1,34,34.99V15.046A1.543,1.543,0,0,1,35.507,13.5h0a1.518,1.518,0,0,1,1.507,1.546V35.028A1.535,1.535,0,0,1,35.507,36.536Z" transform="translate(-34 -13.5)" fill="#848484"/><path d="M128.307,36.536h0A1.518,1.518,0,0,1,126.8,34.99V15.046a1.543,1.543,0,0,1,1.507-1.546h0a1.518,1.518,0,0,1,1.507,1.546V35.028A1.485,1.485,0,0,1,128.307,36.536Z" transform="translate(-90.932 -13.5)" fill="#848484"/><path d="M81.907,39.92h0A1.518,1.518,0,0,1,80.4,38.374V29.446A1.543,1.543,0,0,1,81.907,27.9h0a1.518,1.518,0,0,1,1.507,1.546v8.928A1.518,1.518,0,0,1,81.907,39.92Z" transform="translate(-62.466 -22.334)" fill="#848484"/><g transform="translate(117.807)"><path d="M340.307,36.536h0A1.518,1.518,0,0,1,338.8,34.99V15.046a1.543,1.543,0,0,1,1.507-1.546h0a1.518,1.518,0,0,1,1.507,1.546V35.028A1.535,1.535,0,0,1,340.307,36.536Z" transform="translate(-338.8 -13.5)" fill="#848484"/><path d="M433.107,36.536h0A1.518,1.518,0,0,1,431.6,34.99V15.046a1.543,1.543,0,0,1,1.507-1.546h0a1.518,1.518,0,0,1,1.507,1.546V35.028A1.509,1.509,0,0,1,433.107,36.536Z" transform="translate(-395.732 -13.5)" fill="#848484"/><path d="M385.179,39.6h0a1.564,1.564,0,0,1-2.164,0l-8.928-8.928a1.528,1.528,0,0,1,0-2.164h0a1.564,1.564,0,0,1,2.164,0l8.928,8.928A1.564,1.564,0,0,1,385.179,39.6Z" transform="translate(-360.172 -22.442)" fill="#848484"/></g></g><g transform="translate(159.704 0)"><path d="M447.2,16.283a2.858,2.858,0,0,1,.348-1.391,2.422,2.422,0,0,1,.966-1,2.747,2.747,0,0,1,1.353-.387,2.194,2.194,0,0,1,1.314.387,3,3,0,0,1,.966,1,2.956,2.956,0,0,1,0,2.783,2.778,2.778,0,0,1-.966,1.044,2.56,2.56,0,0,1-2.705,0,2.778,2.778,0,0,1-.966-1.044A3.474,3.474,0,0,1,447.2,16.283Zm.464,0a2.63,2.63,0,0,0,.309,1.2,2.148,2.148,0,0,0,.812.85,2.217,2.217,0,0,0,1.121.309,2.329,2.329,0,0,0,1.121-.309,2.148,2.148,0,0,0,.812-.85,2.511,2.511,0,0,0,.309-1.2,2.361,2.361,0,0,0-.309-1.16,2.148,2.148,0,0,0-.812-.85,2.217,2.217,0,0,0-1.121-.309,2.329,2.329,0,0,0-1.121.309,2.148,2.148,0,0,0-.812.85A2.361,2.361,0,0,0,447.664,16.283Zm1.662.271v1.275h-.541V14.66h1.044a1.515,1.515,0,0,1,.889.232.754.754,0,0,1,.309.7.743.743,0,0,1-.464.7.744.744,0,0,1,.464.773v.232a1.109,1.109,0,0,0,.077.464v.077h-.541a1.334,1.334,0,0,1-.039-.464V16.94c-.039-.232-.193-.348-.5-.387Zm0-.464h.58a.694.694,0,0,0,.425-.116.351.351,0,0,0,.155-.309.407.407,0,0,0-.155-.387.877.877,0,0,0-.5-.116h-.5Z" transform="translate(-447.2 -13.5)" fill="#848484"/></g></g></g></svg>